<?xml version="1.0" encoding="UTF-8" standalone="no"?>
<svg
   xmlns:dc="http://purl.org/dc/elements/1.1/"
   xmlns:cc="http://creativecommons.org/ns#"
   xmlns:rdf="http://www.w3.org/1999/02/22-rdf-syntax-ns#"
   xmlns:svg="http://www.w3.org/2000/svg"
   xmlns="http://www.w3.org/2000/svg"
   viewBox="0 0 523.75 417.5"
   height="417.5"
   width="523.75"
   xml:space="preserve"
   version="1.1"
   id="svg2"><metadata
     id="metadata8"><rdf:RDF><cc:Work
         rdf:about=""><dc:format>image/svg+xml</dc:format><dc:type
           rdf:resource="http://purl.org/dc/dcmitype/StillImage" /><dc:title></dc:title></cc:Work></rdf:RDF></metadata><defs
     id="defs6"><clipPath
       id="clipPath20"
       clipPathUnits="userSpaceOnUse"><path
         id="path22"
         d="m 59.04,73.44 330.72,0 0,202.02 -330.72,0 0,-202.02 z" /></clipPath><clipPath
       id="clipPath112"
       clipPathUnits="userSpaceOnUse"><path
         id="path114"
         d="m 59.04,73.44 330.72,0 0,202.02 -330.72,0 0,-202.02 z" /></clipPath></defs><g
     transform="matrix(1.25,0,0,-1.25,0,417.5)"
     id="g10"><g
       id="g12"><path
         id="path14"
         style="fill:#ffffff;fill-opacity:1;fill-rule:nonzero;stroke:none"
         d="m 0,0 420,0 0,334.5 -420,0 L 0,0 Z" /></g><g
       id="g16"><g
         clip-path="url(#clipPath20)"
         id="g18" /></g><g
       id="g24"><path
         id="path26"
         style="fill:none;stroke:#000000;stroke-width:0.75;stroke-linecap:round;stroke-linejoin:round;stroke-miterlimit:10;stroke-dasharray:none;stroke-opacity:1"
         d="m 59.04,73.44 330.72,0" /><path
         id="path28"
         style="fill:none;stroke:#000000;stroke-width:0.75;stroke-linecap:round;stroke-linejoin:round;stroke-miterlimit:10;stroke-dasharray:none;stroke-opacity:1"
         d="m 59.04,73.44 0,-7.2" /><path
         id="path30"
         style="fill:none;stroke:#000000;stroke-width:0.75;stroke-linecap:round;stroke-linejoin:round;stroke-miterlimit:10;stroke-dasharray:none;stroke-opacity:1"
         d="m 125.18,73.44 0,-7.2" /><path
         id="path32"
         style="fill:none;stroke:#000000;stroke-width:0.75;stroke-linecap:round;stroke-linejoin:round;stroke-miterlimit:10;stroke-dasharray:none;stroke-opacity:1"
         d="m 191.33,73.44 0,-7.2" /><path
         id="path34"
         style="fill:none;stroke:#000000;stroke-width:0.75;stroke-linecap:round;stroke-linejoin:round;stroke-miterlimit:10;stroke-dasharray:none;stroke-opacity:1"
         d="m 257.47,73.44 0,-7.2" /><path
         id="path36"
         style="fill:none;stroke:#000000;stroke-width:0.75;stroke-linecap:round;stroke-linejoin:round;stroke-miterlimit:10;stroke-dasharray:none;stroke-opacity:1"
         d="m 323.62,73.44 0,-7.2" /><path
         id="path38"
         style="fill:none;stroke:#000000;stroke-width:0.75;stroke-linecap:round;stroke-linejoin:round;stroke-miterlimit:10;stroke-dasharray:none;stroke-opacity:1"
         d="m 389.76,73.44 0,-7.2" /><text
         id="text40"
         style="font-variant:normal;font-weight:normal;font-size:12px;font-family:Helvetica;-inkscape-font-specification:Helvetica;writing-mode:lr-tb;fill:#000000;fill-opacity:1;fill-rule:nonzero;stroke:none"
         transform="matrix(1,0,0,-1,55.7,47.52)"><tspan
           id="tspan42"
           y="0"
           x="0">0</tspan></text>
<text
         id="text44"
         style="font-variant:normal;font-weight:normal;font-size:12px;font-family:Helvetica;-inkscape-font-specification:Helvetica;writing-mode:lr-tb;fill:#000000;fill-opacity:1;fill-rule:nonzero;stroke:none"
         transform="matrix(1,0,0,-1,118.51,47.52)"><tspan
           id="tspan46"
           y="0"
           x="0 6.6719999">20</tspan></text>
<text
         id="text48"
         style="font-variant:normal;font-weight:normal;font-size:12px;font-family:Helvetica;-inkscape-font-specification:Helvetica;writing-mode:lr-tb;fill:#000000;fill-opacity:1;fill-rule:nonzero;stroke:none"
         transform="matrix(1,0,0,-1,184.66,47.52)"><tspan
           id="tspan50"
           y="0"
           x="0 6.6719999">40</tspan></text>
<text
         id="text52"
         style="font-variant:normal;font-weight:normal;font-size:12px;font-family:Helvetica;-inkscape-font-specification:Helvetica;writing-mode:lr-tb;fill:#000000;fill-opacity:1;fill-rule:nonzero;stroke:none"
         transform="matrix(1,0,0,-1,250.8,47.52)"><tspan
           id="tspan54"
           y="0"
           x="0 6.6719999">60</tspan></text>
<text
         id="text56"
         style="font-variant:normal;font-weight:normal;font-size:12px;font-family:Helvetica;-inkscape-font-specification:Helvetica;writing-mode:lr-tb;fill:#000000;fill-opacity:1;fill-rule:nonzero;stroke:none"
         transform="matrix(1,0,0,-1,316.94,47.52)"><tspan
           id="tspan58"
           y="0"
           x="0 6.6719999">80</tspan></text>
<text
         id="text60"
         style="font-variant:normal;font-weight:normal;font-size:12px;font-family:Helvetica;-inkscape-font-specification:Helvetica;writing-mode:lr-tb;fill:#000000;fill-opacity:1;fill-rule:nonzero;stroke:none"
         transform="matrix(1,0,0,-1,379.75,47.52)"><tspan
           id="tspan62"
           y="0"
           x="0 6.6719999 13.344">100</tspan></text>
<path
         id="path64"
         style="fill:none;stroke:#000000;stroke-width:0.75;stroke-linecap:round;stroke-linejoin:round;stroke-miterlimit:10;stroke-dasharray:none;stroke-opacity:1"
         d="m 59.04,110.21 0,147.06" /><path
         id="path66"
         style="fill:none;stroke:#000000;stroke-width:0.75;stroke-linecap:round;stroke-linejoin:round;stroke-miterlimit:10;stroke-dasharray:none;stroke-opacity:1"
         d="m 59.04,110.21 -7.2,0" /><path
         id="path68"
         style="fill:none;stroke:#000000;stroke-width:0.75;stroke-linecap:round;stroke-linejoin:round;stroke-miterlimit:10;stroke-dasharray:none;stroke-opacity:1"
         d="m 59.04,146.97 -7.2,0" /><path
         id="path70"
         style="fill:none;stroke:#000000;stroke-width:0.75;stroke-linecap:round;stroke-linejoin:round;stroke-miterlimit:10;stroke-dasharray:none;stroke-opacity:1"
         d="m 59.04,183.74 -7.2,0" /><path
         id="path72"
         style="fill:none;stroke:#000000;stroke-width:0.75;stroke-linecap:round;stroke-linejoin:round;stroke-miterlimit:10;stroke-dasharray:none;stroke-opacity:1"
         d="m 59.04,220.5 -7.2,0" /><path
         id="path74"
         style="fill:none;stroke:#000000;stroke-width:0.75;stroke-linecap:round;stroke-linejoin:round;stroke-miterlimit:10;stroke-dasharray:none;stroke-opacity:1"
         d="m 59.04,257.27 -7.2,0" /><text
         id="text76"
         style="font-variant:normal;font-weight:normal;font-size:12px;font-family:Helvetica;-inkscape-font-specification:Helvetica;writing-mode:lr-tb;fill:#000000;fill-opacity:1;fill-rule:nonzero;stroke:none"
         transform="matrix(0,1,1,0,41.76,96.86)"><tspan
           id="tspan78"
           y="0"
           x="0 6.6719999 13.344 20.016001">2000</tspan></text>
<text
         id="text80"
         style="font-variant:normal;font-weight:normal;font-size:12px;font-family:Helvetica;-inkscape-font-specification:Helvetica;writing-mode:lr-tb;fill:#000000;fill-opacity:1;fill-rule:nonzero;stroke:none"
         transform="matrix(0,1,1,0,41.76,133.63)"><tspan
           id="tspan82"
           y="0"
           x="0 6.6719999 13.344 20.016001">4000</tspan></text>
<text
         id="text84"
         style="font-variant:normal;font-weight:normal;font-size:12px;font-family:Helvetica;-inkscape-font-specification:Helvetica;writing-mode:lr-tb;fill:#000000;fill-opacity:1;fill-rule:nonzero;stroke:none"
         transform="matrix(0,1,1,0,41.76,170.39)"><tspan
           id="tspan86"
           y="0"
           x="0 6.6719999 13.344 20.016001">6000</tspan></text>
<text
         id="text88"
         style="font-variant:normal;font-weight:normal;font-size:12px;font-family:Helvetica;-inkscape-font-specification:Helvetica;writing-mode:lr-tb;fill:#000000;fill-opacity:1;fill-rule:nonzero;stroke:none"
         transform="matrix(0,1,1,0,41.76,207.16)"><tspan
           id="tspan90"
           y="0"
           x="0 6.6719999 13.344 20.016001">8000</tspan></text>
<path
         id="path92"
         style="fill:none;stroke:#000000;stroke-width:0.75;stroke-linecap:round;stroke-linejoin:round;stroke-miterlimit:10;stroke-dasharray:none;stroke-opacity:1"
         d="m 59.04,73.44 330.72,0 0,202.02 -330.72,0 0,-202.02" /></g><g
       id="g94"><text
         id="text96"
         style="font-variant:normal;font-weight:bold;font-size:14px;font-family:Helvetica;-inkscape-font-specification:Helvetica-Bold;writing-mode:lr-tb;fill:#000000;fill-opacity:1;fill-rule:nonzero;stroke:none"
         transform="matrix(1,0,0,-1,91.25,299.95)"><tspan
           id="tspan98"
           y="0"
           x="0 10.108 18.284 30.73 38.514 43.959999 47.852001 56.405998 60.298 68.082001 72.744003 81.297997 89.851997 95.297997 103.082 115.528 119.42 127.974 132.636 136.528 145.082 148.974 153.636 158.158 165.942 171.388 179.172 187.726 192.388 196.28 201.726 209.50999 217.29401 225.84801 229.74001 234.40199 242.186 250.74001 258.52399">K−mer histogram of different read types</tspan></text>
<text
         id="text100"
         style="font-variant:normal;font-weight:normal;font-size:12px;font-family:Helvetica;-inkscape-font-specification:Helvetica;writing-mode:lr-tb;fill:#000000;fill-opacity:1;fill-rule:nonzero;stroke:none"
         transform="matrix(1,0,0,-1,190.88,18.72)"><tspan
           id="tspan102"
           y="0"
           x="0 6 13.008 23.004 29.676001 33.672001 37.007999 43.68 50.352001 57.023998 60.360001">k−mer depth</tspan></text>
<text
         id="text104"
         style="font-variant:normal;font-weight:normal;font-size:12px;font-family:Helvetica;-inkscape-font-specification:Helvetica;writing-mode:lr-tb;fill:#000000;fill-opacity:1;fill-rule:nonzero;stroke:none"
         transform="matrix(0,1,1,0,12.96,148.1)"><tspan
           id="tspan106"
           y="0"
           x="0 3.336 7.3319998 14.004 20.676001 27.348 34.02 40.692001 46.692001">frequency</tspan></text>
</g><g
       id="g108"><g
         clip-path="url(#clipPath112)"
         id="g110"><path
           id="path116"
           style="fill:none;stroke:#bebebe;stroke-width:0.08;stroke-linecap:round;stroke-linejoin:round;stroke-miterlimit:10;stroke-dasharray:none;stroke-opacity:1"
           d="m 59.04,73.44 330.72,0" /><path
           id="path118"
           style="fill:none;stroke:#6ca6cd;stroke-width:2.25;stroke-linecap:round;stroke-linejoin:round;stroke-miterlimit:10;stroke-dasharray:none;stroke-opacity:1"
           d="m 129.31,73.44 0.54,0 0.54,0 0.55,0 0.54,0 0.54,0 0.54,0 0.54,0 0.54,0 0.55,0 0.54,0 0.54,0 0.54,0.01 0.54,0 0.55,0 0.54,0 0.54,0 0.54,0 0.54,0 0.54,0 0.55,0.01 0.54,0 0.54,0 0.54,0 0.54,0 0.55,0 0.54,0 0.54,0 0.54,0 0.54,0 0.54,0 0.55,0 0.54,0 0.54,0 0.54,0 0.54,-0.01 0.55,0 0.54,0 0.54,0 0.54,0 0.54,0.01 0.54,0 0.55,0 0.54,0 0.54,0 0.54,0.01 0.54,0 0.55,0 0.54,0.01 0.54,0 0.54,0 0.54,0 0.54,0 0.55,0 0.54,0 0.54,0 0.54,0 0.54,0 0.55,0 0.54,0 0.54,0 0.54,0.01 0.54,0 0.54,0 0.55,0 0.54,0.01 0.54,0 0.54,0 0.54,0.01 0.55,0 0.54,0 0.54,0.01 0.54,0 0.54,0.01 0.54,0 0.55,0.01 0.54,0 0.54,0.01 0.54,0.01 0.54,0.01 0.55,0 0.54,0.01 0.54,0.01 0.54,0.02 0.54,0.01 0.54,0.01 0.55,0.02 0.54,0.02 0.54,0.02 0.54,0.01 0.54,0.02 0.55,0.02 0.54,0.02 0.54,0.02 0.54,0.02 0.54,0.02 0.54,0.02 0.55,0.02 0.54,0.02 0.54,0.02 0.54,0.02 0.54,0.01 0.55,0.02 0.54,0.02 0.54,0.02 0.54,0.02 0.54,0.01 0.54,0.02 0.55,0.02 0.54,0.02 0.54,0.02 0.54,0.02 0.54,0.01 0.54,0.02 0.55,0.02 0.54,0.02 0.54,0.01 0.54,0.01 0.54,0.02 0.55,0.01 0.54,0.01 0.54,0.01 0.54,0.02 0.54,0.01 0.54,0.01 0.55,0.02 0.54,0.02 0.54,0.02 0.54,0.03 0.54,0.03 0.55,0.03 0.54,0.04 0.54,0.04 0.54,0.04 0.54,0.05 0.54,0.05 0.55,0.05 0.54,0.06 0.54,0.06 0.54,0.07 0.54,0.07 0.55,0.08 0.54,0.08 0.54,0.09 0.54,0.1 0.54,0.09 0.54,0.1 0.55,0.1 0.54,0.1 0.54,0.1 0.54,0.1 0.54,0.1 0.55,0.09 0.54,0.1 0.54,0.09 0.54,0.08 0.54,0.09 0.54,0.08 0.55,0.08 0.54,0.07 0.54,0.08 0.54,0.07 0.54,0.07 0.55,0.07 0.54,0.07 0.54,0.06 0.54,0.07 0.54,0.07 0.54,0.07 0.55,0.08 0.54,0.08 0.54,0.08 0.54,0.08 0.54,0.09 0.55,0.1 0.54,0.1 0.54,0.11 0.54,0.12 0.54,0.13 0.54,0.13 0.55,0.14 0.54,0.15 0.54,0.16 0.54,0.16 0.54,0.16 0.55,0.17 0.54,0.17 0.54,0.17 0.54,0.16 0.54,0.16 0.54,0.15 0.55,0.15 0.54,0.15 0.54,0.14 0.54,0.13 0.54,0.14 0.55,0.13 0.54,0.13 0.54,0.13 0.54,0.13 0.54,0.13 0.54,0.14 0.55,0.13 0.54,0.13 0.54,0.14 0.54,0.13 0.54,0.14 0.54,0.15 0.55,0.14 0.54,0.14 0.54,0.15 0.54,0.14 0.54,0.14 0.55,0.13 0.54,0.13 0.54,0.12 0.54,0.11 0.54,0.11 0.54,0.11 0.55,0.11 0.54,0.1 0.54,0.12 0.54,0.11 0.54,0.12 0.55,0.13 0.54,0.13 0.54,0.13 0.54,0.14 0.54,0.13 0.54,0.13 0.55,0.12 0.54,0.12 0.54,0.11 0.54,0.11 0.54,0.11 0.55,0.1 0.54,0.1 0.54,0.11 0.54,0.11 0.54,0.11 0.54,0.11 0.55,0.12 0.54,0.12 0.54,0.11 0.54,0.12 0.54,0.11 0.55,0.11 0.54,0.1 0.54,0.08 0.54,0.08 0.54,0.06 0.54,0.06 0.55,0.05 0.54,0.04 0.54,0.03 0.54,0.04 0.54,0.03 0.55,0.03 0.54,0.04 0.54,0.04 0.54,0.04 0.54,0.05 0.54,0.04 0.55,0.04 0.54,0.04 0.54,0.03 0.54,0.02 0.54,0.01 0.55,-0.01 0.54,-0.02 0.54,-0.04 0.54,-0.04 0.54,-0.06 0.54,-0.06 0.55,-0.07 0.54,-0.07 0.54,-0.06 0.54,-0.06 0.54,-0.05 0.55,-0.04 0.54,-0.04 0.54,-0.03 0.54,-0.03 0.54,-0.02 0.54,-0.03 0.55,-0.02 0.54,-0.03 0.54,-0.04 0.54,-0.03 0.54,-0.05 0.55,-0.05 0.54,-0.06 0.54,-0.07 0.54,-0.07 0.54,-0.09 0.54,-0.09 0.55,-0.1 0.54,-0.11 0.54,-0.12 0.54,-0.11 0.54,-0.13 0.55,-0.12 0.54,-0.12 0.54,-0.12 0.54,-0.12 0.54,-0.12 0.54,-0.11 0.55,-0.12 0.54,-0.11 0.54,-0.12 0.54,-0.12 0.54,-0.12 0.54,-0.13 0.55,-0.12 0.54,-0.14 0.54,-0.14 0.54,-0.14 0.54,-0.14 0.55,-0.15 0.54,-0.15 0.54,-0.16 0.54,-0.15 0.54,-0.15 0.54,-0.16 0.55,-0.15 0.54,-0.15 0.54,-0.15 0.54,-0.15 0.54,-0.15 0.55,-0.15 0.54,-0.15 0.54,-0.15 0.54,-0.16 0.54,-0.16 0.54,-0.16 0.55,-0.17 0.54,-0.16 0.54,-0.16 0.54,-0.17 0.54,-0.16 0.55,-0.16 0.54,-0.15 0.54,-0.15 0.54,-0.14 0.54,-0.13 0.54,-0.13 0.55,-0.12 0.54,-0.12 0.54,-0.11 0.54,-0.1 0.54,-0.09 0.55,-0.1 0.54,-0.09 0.54,-0.09 0.54,-0.09 0.54,-0.1 0.54,-0.1 0.55,-0.1 0.54,-0.12 0.54,-0.12 0.54,-0.12 0.54,-0.14 0.55,-0.13 0.54,-0.14 0.54,-0.14 0.54,-0.14 0.54,-0.14 0.54,-0.13 0.55,-0.13 0.54,-0.12 0.54,-0.12 0.54,-0.12 0.54,-0.11 0.55,-0.1 0.54,-0.11 0.54,-0.1 0.54,-0.09 0.54,-0.09 0.54,-0.08 0.55,-0.08 0.54,-0.07 0.54,-0.06 0.54,-0.06 0.54,-0.05 0.55,-0.04 0.54,-0.05 0.54,-0.04 0.54,-0.04 0.54,-0.04 0.54,-0.05 0.55,-0.05 0.54,-0.05 0.54,-0.05 0.54,-0.05 0.54,-0.06 0.55,-0.06 0.54,-0.06 0.54,-0.06 0.54,-0.06 0.54,-0.06 0.54,-0.06 0.55,-0.05 0.54,-0.06 0.54,-0.05 0.54,-0.04 0.54,-0.05 0.54,-0.04 0.55,-0.05 0.54,-0.04 0.54,-0.05 0.54,-0.04 0.54,-0.04 0.55,-0.04 0.54,-0.05 0.54,-0.04 0.54,-0.04 0.54,-0.03 0.54,-0.04 0.55,-0.03 0.54,-0.03 0.54,-0.02 0.54,-0.02 0.54,-0.02 0.55,-0.02 0.54,-0.02 0.54,-0.02 0.54,-0.01 0.54,-0.02 0.54,-0.01 0.55,-0.02 0.54,-0.01 0.54,-0.02 0.54,-0.01 0.54,-0.01 0.55,-0.01 0.54,-0.02 0.54,-0.01 0.54,-0.01 0.54,-0.02 0.54,-0.01 0.55,-0.02 0.54,-0.01 0.54,-0.02 0.54,-0.02 0.54,-0.02 0.55,-0.02 0.54,-0.02 0.54,-0.02 0.54,-0.02 0.54,-0.01 0.54,-0.02 0.55,-0.01 0.54,-0.01 0.54,-0.01 0.54,-0.01 0.54,0 0.55,-0.01 0.54,0 0.54,0 0.54,0 0.54,0 0.54,-0.01 0.55,0 0.54,0 0.54,0 0.54,-0.01 0.54,0 0.55,-0.01 0.54,0 0.54,-0.01 0.54,-0.01 0.54,0 0.54,-0.01 0.55,0 0.54,-0.01 0.54,0 0.54,-0.01 0.54,0 0.55,0 0.54,-0.01 0.54,0 0.54,0 0.54,0 0.54,0 0.55,-0.01 0.54,0 0.54,0 0.54,0 0.54,0 0.55,0 0.54,-0.01 0.54,0 0.54,0 0.54,0 0.54,0 0.55,0 0.54,0 0.54,0 0.54,0 0.54,-0.01 0.55,0 0.54,0 0.54,0 0.54,0 0.54,0 0.54,0 0.55,0 0.54,0 0.54,0 0.54,0 0.54,0 0.54,0" /><path
           id="path120"
           style="fill:none;stroke:#d2b48c;stroke-width:2.25;stroke-linecap:round;stroke-linejoin:round;stroke-miterlimit:10;stroke-dasharray:none;stroke-opacity:1"
           d="m 41.72,73.44 0.29,0 0.3,0 0.29,0 0.29,0 0.3,0 0.29,0 0.29,0 0.3,0 0.29,0 0.29,0 0.3,0.01 0.29,0 0.29,0 0.3,0 0.29,0 0.29,0 0.29,0.01 0.3,0 0.29,0 0.29,0 0.3,0 0.29,0 0.29,0 0.3,0 0.29,0 0.29,0 0.3,0 0.29,0 0.29,0 0.3,0 0.29,-0.01 0.29,0 0.29,0 0.3,0 0.29,0 0.29,0 0.3,0 0.29,0 0.29,0.01 0.3,0 0.29,0 0.29,0.01 0.3,0 0.29,0 0.29,0.01 0.3,0 0.29,0 0.29,0.01 0.3,0 0.29,0 0.29,0.01 0.29,0 0.3,0 0.29,0.01 0.29,0 0.3,0.01 0.29,0 0.29,0.01 0.3,0.01 0.29,0.01 0.29,0.01 0.3,0.01 0.29,0.01 0.29,0.01 0.3,0.01 0.29,0.01 0.29,0.01 0.29,0.01 0.3,0.01 0.29,0.01 0.29,0.01 0.3,0 0.29,0.01 0.29,0.01 0.3,0.02 0.29,0.01 0.29,0.01 0.3,0.02 0.29,0.01 0.29,0.02 0.3,0.02 0.29,0.02 0.29,0.02 0.3,0.03 0.29,0.02 0.29,0.03 0.29,0.03 0.3,0.03 0.29,0.03 0.29,0.03 0.3,0.04 0.29,0.03 0.29,0.04 0.3,0.03 0.29,0.04 0.29,0.04 0.3,0.04 0.29,0.03 0.29,0.04 0.3,0.04 0.29,0.05 0.29,0.04 0.29,0.05 0.3,0.05 0.29,0.05 0.29,0.06 0.3,0.05 0.29,0.06 0.29,0.07 0.3,0.06 0.29,0.06 0.29,0.07 0.3,0.07 0.29,0.07 0.29,0.08 0.3,0.07 0.29,0.08 0.29,0.09 0.29,0.08 0.3,0.09 0.29,0.1 0.29,0.1 0.3,0.1 0.29,0.11 0.29,0.12 0.3,0.12 0.29,0.13 0.29,0.13 0.3,0.14 0.29,0.15 0.29,0.16 0.3,0.16 0.29,0.16 0.29,0.17 0.3,0.18 0.29,0.18 0.29,0.19 0.29,0.19 0.3,0.2 0.29,0.19 0.29,0.2 0.3,0.2 0.29,0.21 0.29,0.2 0.3,0.21 0.29,0.21 0.29,0.22 0.3,0.22 0.29,0.22 0.29,0.23 0.3,0.24 0.29,0.24 0.29,0.25 0.29,0.26 0.3,0.27 0.29,0.27 0.29,0.29 0.3,0.3 0.29,0.3 0.29,0.31 0.3,0.32 0.29,0.33 0.29,0.34 0.3,0.35 0.29,0.35 0.29,0.37 0.3,0.38 0.29,0.39 0.29,0.41 0.3,0.42 0.29,0.42 0.29,0.44 0.29,0.44 0.3,0.45 0.29,0.44 0.29,0.44 0.3,0.43 0.29,0.43 0.29,0.42 0.3,0.41 0.29,0.4 0.29,0.4 0.3,0.39 0.29,0.39 0.29,0.38 0.3,0.39 0.29,0.39 0.29,0.4 0.29,0.41 0.3,0.41 0.29,0.42 0.29,0.43 0.3,0.44 0.29,0.45 0.29,0.45 0.3,0.45 0.29,0.45 0.29,0.45 0.3,0.45 0.29,0.43 0.29,0.43 0.3,0.42 0.29,0.41 0.29,0.4 0.3,0.39 0.29,0.39 0.29,0.37 0.29,0.38 0.3,0.38 0.29,0.38 0.29,0.38 0.3,0.41 0.29,0.41 0.29,0.44 0.3,0.46 0.29,0.48 0.29,0.5 0.3,0.51 0.29,0.52 0.29,0.53 0.3,0.52 0.29,0.51 0.29,0.49 0.29,0.47 0.3,0.44 0.29,0.41 0.29,0.38 0.3,0.35 0.29,0.33 0.29,0.31 0.3,0.3 0.29,0.28 0.29,0.28 0.3,0.27 0.29,0.27 0.29,0.28 0.3,0.27 0.29,0.28 0.29,0.27 0.3,0.27 0.29,0.26 0.29,0.25 0.29,0.24 0.3,0.23 0.29,0.21 0.29,0.18 0.3,0.17 0.29,0.15 0.29,0.13 0.3,0.1 0.29,0.09 0.29,0.06 0.3,0.04 0.29,0.01 0.29,0 0.3,-0.03 0.29,-0.05 0.29,-0.07 0.29,-0.09 0.3,-0.1 0.29,-0.12 0.29,-0.13 0.3,-0.15 0.29,-0.15 0.29,-0.15 0.3,-0.17 0.29,-0.16 0.29,-0.17 0.3,-0.18 0.29,-0.18 0.29,-0.18 0.3,-0.2 0.29,-0.19 0.29,-0.21 0.29,-0.22 0.3,-0.22 0.29,-0.23 0.29,-0.24 0.3,-0.25 0.29,-0.25 0.29,-0.26 0.3,-0.27 0.29,-0.27 0.29,-0.29 0.3,-0.29 0.29,-0.3 0.29,-0.32 0.3,-0.32 0.29,-0.34 0.29,-0.34 0.3,-0.35 0.29,-0.36 0.29,-0.37 0.29,-0.37 0.3,-0.37 0.29,-0.37 0.29,-0.38 0.3,-0.38 0.29,-0.39 0.29,-0.4 0.3,-0.41 0.29,-0.41 0.29,-0.43 0.3,-0.44 0.29,-0.44 0.29,-0.45 0.3,-0.46 0.29,-0.46 0.29,-0.46 0.29,-0.46 0.3,-0.46 0.29,-0.46 0.29,-0.46 0.3,-0.45 0.29,-0.45 0.29,-0.46 0.3,-0.45 0.29,-0.47 0.29,-0.47 0.3,-0.47 0.29,-0.49 0.29,-0.5 0.3,-0.5 0.29,-0.51 0.29,-0.52 0.3,-0.52 0.29,-0.52 0.29,-0.51 0.29,-0.51 0.3,-0.5 0.29,-0.49 0.29,-0.49 0.3,-0.47 0.29,-0.46 0.29,-0.45 0.3,-0.44 0.29,-0.44 0.29,-0.43 0.3,-0.43 0.29,-0.42 0.29,-0.42 0.3,-0.4 0.29,-0.41 0.29,-0.39 0.29,-0.39 0.3,-0.38 0.29,-0.38 0.29,-0.37 0.3,-0.37 0.29,-0.35 0.29,-0.35 0.3,-0.33 0.29,-0.33 0.29,-0.31 0.3,-0.29 0.29,-0.28 0.29,-0.26 0.3,-0.24 0.29,-0.23 0.29,-0.22 0.3,-0.21 0.29,-0.19 0.29,-0.19 0.29,-0.19 0.3,-0.18 0.29,-0.19 0.29,-0.18 0.3,-0.19 0.29,-0.2 0.29,-0.19 0.3,-0.2 0.29,-0.2 0.29,-0.21 0.3,-0.2 0.29,-0.21 0.29,-0.2 0.3,-0.2 0.29,-0.2 0.29,-0.19 0.29,-0.19 0.3,-0.18 0.29,-0.17 0.29,-0.17 0.3,-0.15 0.29,-0.15 0.29,-0.14 0.3,-0.13 0.29,-0.13 0.29,-0.11 0.3,-0.11 0.29,-0.1 0.29,-0.1 0.3,-0.09 0.29,-0.09 0.29,-0.09 0.3,-0.08 0.29,-0.08 0.29,-0.08 0.29,-0.08 0.3,-0.07 0.29,-0.08 0.29,-0.07 0.3,-0.07 0.29,-0.07 0.29,-0.07 0.3,-0.06 0.29,-0.06 0.29,-0.06 0.3,-0.06 0.29,-0.06 0.29,-0.05 0.3,-0.04 0.29,-0.05 0.29,-0.04 0.29,-0.04 0.3,-0.04 0.29,-0.04 0.29,-0.04 0.3,-0.03 0.29,-0.04 0.29,-0.03 0.3,-0.04 0.29,-0.03 0.29,-0.03 0.3,-0.03 0.29,-0.03 0.29,-0.03 0.3,-0.03 0.29,-0.03 0.29,-0.03 0.3,-0.02 0.29,-0.02 0.29,-0.03 0.29,-0.02 0.3,-0.02 0.29,-0.01 0.29,-0.02 0.3,-0.02 0.29,-0.01 0.29,-0.02 0.3,-0.01 0.29,-0.01 0.29,-0.01 0.3,-0.01 0.29,-0.01 0.29,-0.01 0.3,-0.01 0.29,-0.01 0.29,0 0.29,-0.01 0.3,-0.01 0.29,0 0.29,-0.01 0.3,-0.01 0.29,0 0.29,-0.01 0.3,0 0.29,-0.01 0.29,0 0.3,0 0.29,-0.01 0.29,0 0.3,-0.01 0.29,0 0.29,0 0.29,0 0.3,-0.01 0.29,0 0.29,0 0.3,-0.01 0.29,0 0.29,0 0.3,0 0.29,-0.01 0.29,0 0.3,0 0.29,-0.01 0.29,0 0.3,0 0.29,0 0.29,0 0.3,0 0.29,0 0.29,0 0.29,0 0.3,0 0.29,0 0.29,0 0.3,0 0.29,0 0.29,0 0.3,0 0.29,0 0.29,0 0.3,0 0.29,0 0.29,0 0.3,0 0.29,0 0.29,0 0.29,-0.01 0.3,0 0.29,0 0.29,0 0.3,0 0.29,0 0.29,0 0.3,0 0.29,0 0.29,0 0.3,0" /><path
           id="path122"
           style="fill:none;stroke:#006400;stroke-width:2.25;stroke-linecap:round;stroke-linejoin:round;stroke-miterlimit:10;stroke-dasharray:none;stroke-opacity:1"
           d="m 66.71,73.44 0.44,0 0.45,0 0.44,0 0.44,0 0.44,0 0.44,0 0.44,0 0.45,0 0.44,0.01 0.44,0 0.44,0 0.44,0 0.44,0 0.44,0 0.45,0.01 0.44,0 0.44,0 0.44,0 0.44,0.01 0.44,0 0.45,0.01 0.44,0 0.44,0.01 0.44,0 0.44,0 0.44,0.01 0.45,0 0.44,0 0.44,0.01 0.44,0 0.44,0 0.44,0.01 0.45,0 0.44,0.01 0.44,0 0.44,0.01 0.44,0.01 0.44,0.01 0.45,0.01 0.44,0.01 0.44,0.01 0.44,0.01 0.44,0.02 0.44,0.01 0.44,0.01 0.45,0.01 0.44,0 0.44,0.01 0.44,0.01 0.44,0.01 0.44,0.01 0.45,0.01 0.44,0.02 0.44,0.01 0.44,0.02 0.44,0.03 0.44,0.03 0.45,0.03 0.44,0.04 0.44,0.04 0.44,0.04 0.44,0.05 0.44,0.05 0.45,0.06 0.44,0.05 0.44,0.05 0.44,0.05 0.44,0.05 0.44,0.04 0.44,0.05 0.45,0.04 0.44,0.03 0.44,0.04 0.44,0.04 0.44,0.03 0.44,0.04 0.45,0.04 0.44,0.04 0.44,0.04 0.44,0.05 0.44,0.05 0.44,0.06 0.45,0.07 0.44,0.07 0.44,0.09 0.44,0.09 0.44,0.1 0.44,0.11 0.45,0.12 0.44,0.12 0.44,0.13 0.44,0.13 0.44,0.14 0.44,0.15 0.45,0.15 0.44,0.16 0.44,0.17 0.44,0.17 0.44,0.16 0.44,0.17 0.44,0.15 0.45,0.15 0.44,0.14 0.44,0.13 0.44,0.12 0.44,0.13 0.44,0.13 0.45,0.14 0.44,0.16 0.44,0.18 0.44,0.22 0.44,0.24 0.44,0.28 0.45,0.31 0.44,0.33 0.44,0.35 0.44,0.37 0.44,0.38 0.44,0.38 0.45,0.38 0.44,0.38 0.44,0.38 0.44,0.37 0.44,0.37 0.44,0.36 0.44,0.37 0.45,0.37 0.44,0.38 0.44,0.38 0.44,0.4 0.44,0.42 0.44,0.44 0.45,0.46 0.44,0.48 0.44,0.49 0.44,0.52 0.44,0.53 0.44,0.54 0.45,0.54 0.44,0.56 0.44,0.56 0.44,0.56 0.44,0.59 0.44,0.59 0.45,0.62 0.44,0.65 0.44,0.69 0.44,0.71 0.44,0.75 0.44,0.77 0.45,0.8 0.44,0.8 0.44,0.81 0.44,0.82 0.44,0.81 0.44,0.8 0.44,0.8 0.45,0.8 0.44,0.78 0.44,0.79 0.44,0.79 0.44,0.8 0.44,0.81 0.45,0.84 0.44,0.87 0.44,0.9 0.44,0.92 0.44,0.96 0.44,0.98 0.45,1 0.44,1.01 0.44,1.02 0.44,1.02 0.44,1.03 0.44,1.02 0.45,1.02 0.44,1.02 0.44,1.02 0.44,1.02 0.44,1.03 0.44,1.01 0.45,1.01 0.44,0.98 0.44,0.96 0.44,0.93 0.44,0.89 0.44,0.85 0.44,0.83 0.45,0.82 0.44,0.81 0.44,0.83 0.44,0.86 0.44,0.89 0.44,0.95 0.45,1 0.44,1.05 0.44,1.1 0.44,1.15 0.44,1.19 0.44,1.21 0.45,1.23 0.44,1.22 0.44,1.2 0.44,1.17 0.44,1.14 0.44,1.09 0.45,1.05 0.44,1 0.44,0.96 0.44,0.91 0.44,0.86 0.44,0.83 0.44,0.78 0.45,0.75 0.44,0.71 0.44,0.69 0.44,0.68 0.44,0.69 0.44,0.68 0.45,0.7 0.44,0.7 0.44,0.71 0.44,0.69 0.44,0.68 0.44,0.64 0.45,0.59 0.44,0.55 0.44,0.48 0.44,0.43 0.44,0.37 0.44,0.32 0.45,0.29 0.44,0.27 0.44,0.25 0.44,0.24 0.44,0.24 0.44,0.25 0.45,0.25 0.44,0.25 0.44,0.24 0.44,0.22 0.44,0.19 0.44,0.14 0.44,0.08 0.45,0.03 0.44,-0.04 0.44,-0.09 0.44,-0.13 0.44,-0.15 0.44,-0.17 0.45,-0.18 0.44,-0.18 0.44,-0.19 0.44,-0.2 0.44,-0.23 0.44,-0.25 0.45,-0.3 0.44,-0.35 0.44,-0.39 0.44,-0.44 0.44,-0.48 0.44,-0.52 0.45,-0.54 0.44,-0.57 0.44,-0.58 0.44,-0.6 0.44,-0.61 0.44,-0.62 0.44,-0.63 0.45,-0.64 0.44,-0.65 0.44,-0.67 0.44,-0.68 0.44,-0.7 0.44,-0.72 0.45,-0.74 0.44,-0.78 0.44,-0.8 0.44,-0.83 0.44,-0.85 0.44,-0.87 0.45,-0.88 0.44,-0.9 0.44,-0.92 0.44,-0.94 0.44,-0.96 0.44,-0.98 0.45,-1.02 0.44,-1.04 0.44,-1.07 0.44,-1.09 0.44,-1.11 0.44,-1.11 0.45,-1.1 0.44,-1.1 0.44,-1.09 0.44,-1.07 0.44,-1.05 0.44,-1.03 0.44,-1.02 0.45,-1.01 0.44,-1.01 0.44,-1.01 0.44,-1.03 0.44,-1.04 0.44,-1.06 0.45,-1.08 0.44,-1.1 0.44,-1.11 0.44,-1.11 0.44,-1.11 0.44,-1.1 0.45,-1.08 0.44,-1.06 0.44,-1.05 0.44,-1.03 0.44,-1.02 0.44,-1.01 0.45,-0.98 0.44,-0.98 0.44,-0.95 0.44,-0.93 0.44,-0.91 0.44,-0.87 0.44,-0.85 0.45,-0.82 0.44,-0.8 0.44,-0.78 0.44,-0.78 0.44,-0.78 0.44,-0.79 0.45,-0.79 0.44,-0.8 0.44,-0.8 0.44,-0.81 0.44,-0.8 0.44,-0.8 0.45,-0.79 0.44,-0.77 0.44,-0.74 0.44,-0.73 0.44,-0.7 0.44,-0.68 0.45,-0.66 0.44,-0.63 0.44,-0.62 0.44,-0.59 0.44,-0.58 0.44,-0.57 0.45,-0.55 0.44,-0.55 0.44,-0.55 0.44,-0.54 0.44,-0.53 0.44,-0.53 0.44,-0.51 0.45,-0.49 0.44,-0.48 0.44,-0.45 0.44,-0.43 0.44,-0.41 0.44,-0.39 0.45,-0.37 0.44,-0.36 0.44,-0.35 0.44,-0.35 0.44,-0.35 0.44,-0.34 0.45,-0.35 0.44,-0.34 0.44,-0.34 0.44,-0.33 0.44,-0.32 0.44,-0.31 0.45,-0.3 0.44,-0.28 0.44,-0.27 0.44,-0.26 0.44,-0.24 0.44,-0.24 0.45,-0.22 0.44,-0.22 0.44,-0.21 0.44,-0.2 0.44,-0.2 0.44,-0.19 0.44,-0.18 0.45,-0.18 0.44,-0.17 0.44,-0.17 0.44,-0.16 0.44,-0.15 0.44,-0.15 0.45,-0.14 0.44,-0.13 0.44,-0.13 0.44,-0.12 0.44,-0.11 0.44,-0.11 0.45,-0.1 0.44,-0.09 0.44,-0.1 0.44,-0.09 0.44,-0.09 0.44,-0.08 0.45,-0.09 0.44,-0.08 0.44,-0.08 0.44,-0.07 0.44,-0.07 0.44,-0.07 0.44,-0.06 0.45,-0.06 0.44,-0.05 0.44,-0.06 0.44,-0.05 0.44,-0.06 0.44,-0.06 0.45,-0.06 0.44,-0.06 0.44,-0.06 0.44,-0.06 0.44,-0.06 0.44,-0.05 0.45,-0.05 0.44,-0.05 0.44,-0.04 0.44,-0.03 0.44,-0.03 0.44,-0.03 0.45,-0.03 0.44,-0.02 0.44,-0.02 0.44,-0.02 0.44,-0.02 0.44,-0.02 0.45,-0.01 0.44,-0.02 0.44,-0.01 0.44,-0.01 0.44,-0.01 0.44,-0.01 0.44,0 0.45,-0.01 0.44,0 0.44,0 0.44,0 0.44,0 0.44,-0.01 0.45,0 0.44,-0.01 0.44,0 0.44,-0.01 0.44,0 0.44,-0.01 0.45,-0.01 0.44,0 0.44,-0.01 0.44,-0.01 0.44,0 0.44,-0.01 0.45,0 0.44,0 0.44,-0.01 0.44,0 0.44,0 0.44,0 0.44,0 0.45,0 0.44,0 0.44,0 0.44,0 0.44,0 0.44,-0.01 0.45,0 0.44,0 0.44,0 0.44,-0.01 0.44,0 0.44,0 0.45,0 0.44,0 0.44,-0.01 0.44,0 0.44,0 0.44,0 0.45,0 0.44,0 0.44,0 0.44,0.01 0.44,0 0.44,0 0.45,0 0.44,0 0.44,0 0.44,0 0.44,0 0.44,0 0.44,0 0.45,0 0.44,0 0.44,0 0.44,-0.01 0.44,0 0.44,0 0.45,0 0.44,0 0.44,0 0.44,0 0.44,0 0.44,0" /><path
           id="path124"
           style="fill:none;stroke:#ff0000;stroke-width:2.25;stroke-linecap:round;stroke-linejoin:round;stroke-miterlimit:10;stroke-dasharray:none;stroke-opacity:1"
           d="m 49.12,76.81 0.48,1.8 0.49,2.57 0.48,3.6 0.49,4.91 0.49,6.52 0.48,8.49 0.49,10.92 0.48,13.68 0.49,16.46 0.48,19.25 0.49,21.87 0.48,24.12 0.49,25.78 0.48,26.62 0.49,26.48 0.48,25.23 0.42,19.39" /><path
           id="path126"
           style="fill:none;stroke:#ff0000;stroke-width:2.25;stroke-linecap:round;stroke-linejoin:round;stroke-miterlimit:10;stroke-dasharray:none;stroke-opacity:1"
           d="m 61.28,334.5 0.46,-20.31 0.48,-23.4 0.49,-24.25 0.49,-23.91 0.48,-22.75 0.49,-21.01 0.48,-18.89 0.49,-16.55 0.48,-14.19 0.49,-11.9 0.48,-9.81 0.49,-7.95 0.48,-6.32 0.49,-4.95 0.48,-3.95 0.49,-3.17 0.49,-2.55 0.48,-2.08 0.49,-1.73 0.48,-1.46 0.49,-1.25 0.48,-1.11 0.49,-0.99 0.48,-0.88 0.49,-0.82 0.48,-0.76 0.49,-0.7 0.48,-0.66 0.49,-0.63 0.49,-0.58 0.48,-0.55 0.49,-0.52 0.48,-0.5 0.49,-0.46 0.48,-0.44 0.49,-0.41 0.48,-0.39 0.49,-0.36 0.48,-0.35 0.49,-0.32 0.48,-0.31 0.49,-0.28 0.49,-0.26 0.48,-0.25 0.49,-0.23 0.48,-0.21 0.49,-0.19 0.48,-0.18 0.49,-0.17 0.48,-0.16 0.49,-0.14 0.48,-0.14 0.49,-0.13 0.49,-0.12 0.48,-0.12 0.49,-0.12 0.48,-0.11 0.49,-0.11 0.48,-0.11 0.49,-0.1 0.48,-0.11 0.49,-0.1 0.48,-0.11 0.49,-0.09 0.48,-0.1 0.49,-0.08 0.49,-0.09 0.48,-0.08 0.49,-0.07 0.48,-0.07 0.49,-0.07 0.48,-0.06 0.49,-0.06 0.48,-0.06 0.49,-0.06 0.48,-0.06 0.49,-0.06 0.48,-0.06 0.49,-0.06 0.49,-0.06 0.48,-0.06 0.49,-0.06 0.48,-0.06 0.49,-0.06 0.48,-0.05 0.49,-0.06 0.48,-0.04 0.49,-0.05 0.48,-0.05 0.49,-0.04 0.48,-0.04 0.49,-0.04 0.49,-0.04 0.48,-0.04 0.49,-0.04 0.48,-0.04 0.49,-0.04 0.48,-0.04 0.49,-0.04 0.48,-0.04 0.49,-0.05 0.48,-0.04 0.49,-0.04 0.49,-0.03 0.48,-0.04 0.49,-0.03 0.48,-0.04 0.49,-0.03 0.48,-0.02 0.49,-0.03 0.48,-0.03 0.49,-0.02 0.48,-0.02 0.49,-0.03 0.48,-0.02 0.49,-0.02 0.49,-0.02 0.48,-0.02 0.49,-0.01 0.48,-0.02 0.49,-0.02 0.48,-0.01 0.49,-0.02 0.48,-0.01 0.49,-0.02 0.48,-0.01 0.49,-0.02 0.48,-0.01 0.49,-0.02 0.49,-0.02 0.48,-0.01 0.49,-0.02 0.48,-0.02 0.49,-0.01 0.48,-0.02 0.49,-0.02 0.48,-0.02 0.49,-0.01 0.48,-0.02 0.49,-0.01 0.48,-0.01 0.49,-0.01 0.49,-0.01 0.48,-0.01 0.49,-0.01 0.48,0 0.49,-0.01 0.48,0 0.49,-0.01 0.48,0 0.49,-0.01 0.48,0 0.49,-0.01 0.49,-0.01 0.48,-0.01 0.49,-0.01 0.48,-0.01 0.49,-0.01 0.48,-0.01 0.49,-0.01 0.48,-0.01 0.49,-0.01 0.48,-0.01 0.49,-0.01 0.48,0 0.49,-0.01 0.49,-0.01 0.48,-0.01 0.49,0 0.48,-0.01 0.49,-0.01 0.48,0 0.49,-0.01 0.48,0 0.49,0 0.48,-0.01 0.49,0 0.48,-0.01 0.49,0 0.49,0 0.48,0 0.49,-0.01 0.48,0 0.49,-0.01 0.48,0 0.49,-0.01 0.48,0 0.49,-0.01 0.48,0 0.49,-0.01 0.48,0 0.49,-0.01 0.49,0 0.48,0 0.49,-0.01 0.48,0 0.49,0 0.48,0 0.49,0 0.48,0.01 0.49,0 0.48,0 0.49,0 0.49,0.01 0.48,0 0.49,0 0.48,0 0.49,0 0.48,0 0.49,0 0.48,0 0.49,0 0.48,-0.01 0.49,0 0.48,0 0.49,-0.01 0.49,0 0.48,-0.01 0.49,0 0.48,-0.01 0.49,0 0.48,-0.01 0.49,0 0.48,-0.01 0.49,0 0.48,-0.01 0.49,0 0.48,0 0.49,-0.01 0.49,0 0.48,-0.01 0.49,0 0.48,0 0.49,-0.01 0.48,0 0.49,0 0.48,0 0.49,0 0.48,0 0.49,0 0.49,0 0.48,0 0.49,-0.01 0.48,0 0.49,0 0.48,0 0.49,0 0.48,0 0.49,0 0.48,0 0.49,0.01 0.48,0 0.49,0 0.49,0 0.48,0 0.49,0 0.48,0.01 0.49,0 0.48,0 0.49,0 0.48,0 0.49,0 0.48,0 0.49,0 0.48,0 0.49,0 0.49,0 0.48,0 0.49,0 0.48,0 0.49,0 0.48,0 0.49,0 0.48,0 0.49,0 0.48,0 0.49,-0.01 0.48,0 0.49,0 0.49,0 0.48,0 0.49,-0.01 0.48,0 0.49,0 0.48,0 0.49,0 0.48,-0.01 0.49,0 0.48,0 0.49,0 0.49,0 0.48,-0.01 0.49,0 0.48,0 0.49,0 0.48,0 0.49,-0.01 0.48,0 0.49,0 0.48,0 0.49,0 0.48,0 0.49,-0.01 0.49,0 0.48,0 0.49,0 0.48,0 0.49,0 0.48,0 0.49,0 0.48,0 0.49,0 0.48,0 0.49,0 0.48,0 0.49,0 0.49,0 0.48,0 0.49,0 0.48,0 0.49,0 0.48,0 0.49,0 0.48,0 0.49,0 0.48,0 0.49,0 0.48,0 0.49,0 0.49,0 0.48,0 0.49,0 0.48,0 0.49,0 0.48,0 0.49,0 0.48,0 0.49,0 0.48,0 0.49,0 0.49,0 0.48,0 0.49,0 0.48,0 0.49,0 0.48,0 0.49,0 0.48,0 0.49,0 0.48,0 0.49,0 0.48,0 0.49,0 0.49,0 0.48,0 0.49,0 0.48,0 0.49,0 0.48,0 0.49,0 0.48,0 0.49,0 0.48,0 0.49,0 0.48,0 0.49,0 0.49,0 0.48,0 0.49,0 0.48,-0.01 0.49,0 0.48,0 0.49,0 0.48,0 0.49,0 0.48,0 0.49,0 0.48,0 0.49,0 0.49,0 0.48,0 0.49,0 0.48,0 0.49,0 0.48,0 0.49,0 0.48,0 0.49,0 0.48,0 0.49,0 0.49,0 0.48,0.01 0.49,0 0.48,0 0.49,0 0.48,0 0.49,0 0.48,0 0.49,0 0.48,0 0.49,0 0.48,0 0.49,0 0.49,-0.01 0.48,0 0.49,0 0.48,0 0.49,0 0.48,0 0.49,0 0.48,0 0.49,0 0.48,0 0.49,0 0.48,0 0.49,0 0.49,0 0.48,0 0.49,0 0.48,0 0.49,0 0.48,0 0.49,0 0.48,0 0.49,0 0.48,0 0.49,0 0.48,0 0.49,0 0.49,0 0.48,0 0.49,0 0.48,0 0.49,0 0.48,0 0.49,0 0.48,0 0.49,0 0.48,0 0.49,0 0.49,0 0.48,0 0.49,0 0.48,0 0.49,0 0.48,0 0.49,0 0.48,0 0.49,0 0.48,0 0.49,0 0.48,0 0.49,0 0.49,0 0.48,0 0.49,0 0.48,0 0.49,0 0.48,0 0.49,0.01 0.48,0 0.49,0 0.48,0 0.49,0 0.48,0 0.49,0 0.49,0 0.48,0 0.49,0 0.48,0 0.49,0 0.48,-0.01 0.49,0 0.48,0 0.49,0 0.48,0 0.49,0 0.49,0 0.48,0 0.49,0 0.48,0 0.49,0 0.48,0 0.49,0 0.48,0 0.49,0" /><path
           id="path128"
           style="fill:#ffffff;fill-opacity:1;fill-rule:nonzero;stroke:#000000;stroke-width:0.75;stroke-linecap:round;stroke-linejoin:round;stroke-miterlimit:10;stroke-dasharray:none;stroke-opacity:1"
           d="m 271.26,275.46 118.5,0 0,-64.8 -118.5,0 0,64.8 z" /><path
           id="path130"
           style="fill:none;stroke:#ff0000;stroke-width:2.25;stroke-linecap:round;stroke-linejoin:round;stroke-miterlimit:10;stroke-dasharray:none;stroke-opacity:1"
           d="m 279.36,253.86 16.2,0" /><path
           id="path132"
           style="fill:none;stroke:#d2b48c;stroke-width:2.25;stroke-linecap:round;stroke-linejoin:round;stroke-miterlimit:10;stroke-dasharray:none;stroke-opacity:1"
           d="m 279.36,243.06 16.2,0" /><path
           id="path134"
           style="fill:none;stroke:#006400;stroke-width:2.25;stroke-linecap:round;stroke-linejoin:round;stroke-miterlimit:10;stroke-dasharray:none;stroke-opacity:1"
           d="m 279.36,232.26 16.2,0" /><path
           id="path136"
           style="fill:none;stroke:#6ca6cd;stroke-width:2.25;stroke-linecap:round;stroke-linejoin:round;stroke-miterlimit:10;stroke-dasharray:none;stroke-opacity:1"
           d="m 279.36,221.46 16.2,0" /><text
           id="text138"
           style="font-variant:normal;font-weight:normal;font-size:9px;font-family:Helvetica;-inkscape-font-specification:Helvetica;writing-mode:lr-tb;fill:#000000;fill-opacity:1;fill-rule:nonzero;stroke:none"
           transform="matrix(1,0,0,-1,315.63,264.66)"><tspan
             id="tspan140"
             y="0"
             x="0 4.5 9.7559996 17.253 22.257 25.254">k−mers</tspan></text>
<text
           id="text142"
           style="font-variant:normal;font-weight:normal;font-size:9px;font-family:Helvetica;-inkscape-font-specification:Helvetica;writing-mode:lr-tb;fill:#000000;fill-opacity:1;fill-rule:nonzero;stroke:none"
           transform="matrix(1,0,0,-1,303.66,250.63)"><tspan
             id="tspan144"
             y="0"
             x="0 4.5 9.5039997 14.508 19.511999 24.516001 29.52 34.02 36.018002 41.021999 46.026001 48.528 53.532001 56.528999 59.526001 64.529999 67.527">sequencing errors</tspan></text>
<text
           id="text146"
           style="font-variant:normal;font-weight:normal;font-size:9px;font-family:Helvetica;-inkscape-font-specification:Helvetica;writing-mode:lr-tb;fill:#000000;fill-opacity:1;fill-rule:nonzero;stroke:none"
           transform="matrix(1,0,0,-1,303.66,239.83)"><tspan
             id="tspan148"
             y="0"
             x="0 5.0040002 10.008 12.51 17.514 20.511 25.514999 30.014999 34.514999 39.519001 44.522999 49.527 54.027 56.528999 61.533001 63.530998 65.528999 70.532997 72.530998 77.535004">heterozygous alleles</tspan></text>
<text
           id="text150"
           style="font-variant:normal;font-weight:normal;font-size:9px;font-family:Helvetica;-inkscape-font-specification:Helvetica;writing-mode:lr-tb;fill:#000000;fill-opacity:1;fill-rule:nonzero;stroke:none"
           transform="matrix(1,0,0,-1,303.66,229.03)"><tspan
             id="tspan152"
             y="0"
             x="0 5.0040002 10.008 17.504999 22.509001 27.009001 31.509001 36.513 41.516998 46.521 51.021 53.522999 58.527 60.525002 62.522999 67.527 69.525002 74.528999">homozygous alleles</tspan></text>
<text
           id="text154"
           style="font-variant:normal;font-weight:normal;font-size:9px;font-family:Helvetica;-inkscape-font-specification:Helvetica;writing-mode:lr-tb;fill:#000000;fill-opacity:1;fill-rule:nonzero;stroke:none"
           transform="matrix(1,0,0,-1,303.66,218.23)"><tspan
             id="tspan156"
             y="0"
             x="0 2.997 8.0010004 13.005 18.009001 23.013 25.514999">repeats</tspan></text>
<path
           id="path158"
           style="fill:none;stroke:#bebebe;stroke-width:1.5;stroke-linecap:round;stroke-linejoin:round;stroke-miterlimit:10;stroke-dasharray:0, 6;stroke-dashoffset:0;stroke-opacity:1"
           d="m 174.79,73.44 0,96.51" /></g></g><g
       id="g160"><path
         id="path162"
         style="fill:none;stroke:#bebebe;stroke-width:0.75;stroke-linecap:round;stroke-linejoin:round;stroke-miterlimit:10;stroke-dasharray:none;stroke-opacity:1"
         d="m 174.79,73.44 0,0" /><path
         id="path164"
         style="fill:none;stroke:#bebebe;stroke-width:0.75;stroke-linecap:round;stroke-linejoin:round;stroke-miterlimit:10;stroke-dasharray:none;stroke-opacity:1"
         d="m 174.79,73.44 0,-7.2" /><text
         id="text166"
         style="font-variant:normal;font-weight:normal;font-size:9px;font-family:Helvetica;-inkscape-font-specification:Helvetica;writing-mode:lr-tb;fill:#bebebe;fill-opacity:1;fill-rule:nonzero;stroke:none"
         transform="matrix(1,0,0,-1,170.54,53.98)"><tspan
           id="tspan168"
           y="0"
           x="0 6.4980001">D'</tspan></text>
</g></g></svg>